<svg width="640" height="360" viewBox="0 0 640 360" fill="none" xmlns="http://www.w3.org/2000/svg">
  <rect width="640" height="360" fill="white"/>
  
  <!-- Content Background -->
  <rect x="25" y="45" width="590" height="295" rx="8" fill="#F8FAFC" stroke="#E2E8F0"/>
  
  <!-- Monthly Tasks (Column 1) -->
  <rect x="40" y="60" width="180" height="260" rx="4" fill="white" stroke="#CBD5E0"/>
  <rect x="40" y="60" width="180" height="25" rx="4 4 0 0" fill="#2B6CB0"/>
  <text x="130" y="77" font-family="Arial, sans-serif" font-size="9" font-weight="bold" fill="white" text-anchor="middle">MONTHLY CHECKLIST</text>
  
  <g font-family="Arial, sans-serif" font-size="8" fill="#4A5568">
    <rect x="50" y="94" width="6" height="6" stroke="#718096"/>
    <text x="60" y="100">Visual Inspection of Panels</text>
    <rect x="50" y="112" width="6" height="6" stroke="#718096"/>
    <text x="60" y="118">Functional Call Tests</text>
    <rect x="50" y="130" width="6" height="6" stroke="#718096"/>
    <text x="60" y="136">Door Release Verification</text>
    <rect x="50" y="148" width="6" height="6" stroke="#718096"/>
    <text x="60" y="154">Clean Camera Lenses</text>
    <rect x="50" y="166" width="6" height="6" stroke="#718096"/>
    <text x="60" y="172">Monitor Response Test</text>
    <rect x="50" y="184" width="6" height="6" stroke="#718096"/>
    <text x="60" y="190">Log Backup / Verification</text>
    <rect x="50" y="202" width="6" height="6" stroke="#718096"/>
    <text x="60" y="208">Audio Feedback Check</text>
    <rect x="50" y="220" width="6" height="6" stroke="#718096"/>
    <text x="60" y="226">Equipment Room De-dusting</text>
    <rect x="50" y="238" width="6" height="6" stroke="#718096"/>
    <text x="60" y="244">Check Cable Terminals</text>
    <rect x="50" y="256" width="6" height="6" stroke="#718096"/>
    <text x="60" y="262">Battery UPS Visual Check</text>
    <rect x="50" y="274" width="6" height="6" stroke="#718096"/>
    <text x="60" y="280">Lighting / Night Vision Check</text>
    <rect x="50" y="292" width="6" height="6" stroke="#718096"/>
    <text x="60" y="298">Security Directory Audit</text>
  </g>
  
  <!-- Quarterly Tasks (Column 2) -->
  <rect x="230" y="60" width="180" height="120" rx="4" fill="white" stroke="#CBD5E0"/>
  <rect x="230" y="60" width="180" height="25" rx="4 4 0 0" fill="#2B6CB0"/>
  <text x="320" y="77" font-family="Arial, sans-serif" font-size="9" font-weight="bold" fill="white" text-anchor="middle">QUARTERLY CHECKLIST</text>
  
  <g font-family="Arial, sans-serif" font-size="8" fill="#4A5568">
    <rect x="240" y="94" width="6" height="6" stroke="#718096"/>
    <text x="250" y="100">Firmware Lifecycle Check</text>
    <rect x="240" y="112" width="6" height="6" stroke="#718096"/>
    <text x="250" y="118">UPS Battery Load Test</text>
    <rect x="240" y="130" width="6" height="6" stroke="#718096"/>
    <text x="250" y="136">Full Network Protocol Audit</text>
    <rect x="240" y="148" width="6" height="6" stroke="#718096"/>
    <text x="250" y="154">Database Cleanup / Arc</text>
  </g>
  
  <!-- Annual Tasks (Column 3) -->
  <rect x="420" y="60" width="180" height="60" rx="4" fill="white" stroke="#CBD5E0"/>
  <rect x="420" y="60" width="180" height="25" rx="4 4 0 0" fill="#1A365D"/>
  <text x="510" y="77" font-family="Arial, sans-serif" font-size="9" font-weight="bold" fill="white" text-anchor="middle">ANNUAL CERTIFICATION</text>
  
  <g font-family="Arial, sans-serif" font-size="8" fill="#4A5568">
    <rect x="430" y="94" width="6" height="6" stroke="#1A365D"/>
    <text x="440" y="100">Comprehensive Safety Audit</text>
  </g>
  
  <!-- Footer Reference -->
  <text x="320" y="30" font-family="Arial, sans-serif" font-size="16" font-weight="bold" fill="#1A365D" text-anchor="middle">Intercom System: Preventive Maintenance Schedule Template</text>
  <text x="320" y="348" font-family="Arial, sans-serif" font-size="9" fill="#718096" text-anchor="middle">Reference Guide: Property Maintenance Protocol (v1.4)</text>
</svg>
